{"accessors" : [{"bufferView" : 0, "byteOffset" : 0, "componentType" : 5123, "count" : 15840, "type" : "SCALAR", "max" : [15839], "min" : [0]}, {"bufferView" : 1, "byteOffset" : 0, "componentType" : 5126, "count" : 15840, "type" : "VEC3", "max" : [52.23173141479492, 49.36062240600586, 53.25240707397461], "min" : [-32.87189483642578, -13.284172058105469, -53.25240707397461], "name" : "POSITION"}, {"bufferView" : 1, "byteOffset" : 12, "componentType" : 5126, "count" : 15840, "type" : "VEC3", "max" : [0.9999409317970276, 0.9995278716087341, 0.9999915957450867], "min" : [-0.9985079169273376, -0.9998603463172913, -0.9999915957450867], "name" : "NORMAL"}], "asset" : {"generator" : "Aspose.3D 24.9.1", "version" : "2.0"}, "buffers" : [{"uri" : "data:application/octet-stream;base64,", "byteLength" : 411848}], "bufferViews" : [{"buffer" : 0, "byteOffset" : 0, "byteLength" : 31680, "target" : 34963}, {"buffer" : 0, "byteOffset" : 31684, "byteLength" : 380160, "byteStride" : 24, "target" : 34962}], "meshes" : [{"primitives" : [{"attributes" : {"POSITION" : 1, "NORMAL" : 2}, "indices" : 0, "mode" : 4}], "name" : ""}], "nodes" : [{"mesh" : 0, "name" : "object"}], "scene" : 0, "scenes" : [{"nodes" : [0]}]}